<?xml version="1.0" standalone="no"?>
<!DOCTYPE svg PUBLIC "-//W3C//DTD SVG 20010904//EN"
 "http://www.w3.org/TR/2001/REC-SVG-20010904/DTD/svg10.dtd">
<svg version="1.0" xmlns="http://www.w3.org/2000/svg"
 width="5764.000000pt" height="5218.000000pt" viewBox="0 0 5764.000000 5218.000000"
 preserveAspectRatio="xMidYMid meet">

<g transform="translate(0.000000,5218.000000) scale(0.100000,-0.100000)"
fill="#000000" stroke="none">
<path d="M13415 48779 c-275 -40 -507 -248 -575 -515 -32 -124 -27 -231 19
-442 42 -188 62 -290 166 -847 93 -494 122 -667 156 -935 16 -129 43 -332 59
-450 106 -773 135 -1153 134 -1790 0 -530 -17 -825 -74 -1280 -34 -268 -88
-448 -202 -672 -117 -232 -264 -426 -492 -653 -418 -416 -998 -794 -1888
-1230 -342 -167 -491 -235 -1193 -550 -963 -431 -1118 -508 -2260 -1125 -1132
-612 -1948 -1150 -2700 -1779 -627 -525 -1166 -1083 -1570 -1626 -715 -958
-1056 -1848 -1182 -3075 -25 -246 -25 -969 0 -1210 80 -769 262 -1456 563
-2127 332 -742 879 -1572 1553 -2358 437 -510 1027 -1104 1571 -1581 1259
-1104 2798 -2129 4765 -3174 277 -147 1062 -539 1345 -671 124 -58 387 -191
586 -295 198 -104 514 -265 702 -359 188 -93 340 -174 338 -180 -2 -5 -525
-1243 -1160 -2749 -921 -2182 -1154 -2742 -1144 -2752 7 -6 4038 -2474 8956
-5483 8565 -5240 8945 -5471 8967 -5457 12 8 4063 2385 9001 5281 4938 2897
8981 5269 8983 5271 2 2 -529 1323 -1179 2936 -651 1613 -1185 2940 -1187
2949 -3 12 136 89 574 319 677 355 872 460 1238 663 1802 1001 3533 2100 4871
3092 2050 1522 3505 3178 4180 4757 261 611 418 1224 491 1913 25 244 26 935
0 1185 -69 673 -215 1287 -439 1845 -70 175 -257 562 -348 720 -243 423 -490
770 -839 1175 -164 191 -652 678 -864 863 -815 711 -1753 1329 -3102 2044 -93
50 -312 166 -485 259 -496 265 -695 360 -1610 769 -1306 584 -1724 796 -2245
1140 -611 403 -1010 818 -1240 1290 -140 287 -198 509 -254 985 -71 595 -81
1391 -25 2115 46 612 100 1001 235 1700 38 198 90 479 115 625 25 146 64 348
86 450 64 293 57 415 -37 607 -73 147 -205 271 -361 336 -136 58 -312 71 -450
33 -98 -26 -449 -191 -699 -329 -697 -384 -1307 -881 -1837 -1497 -362 -422
-708 -954 -958 -1473 -362 -755 -572 -1513 -657 -2372 -22 -225 -25 -991 -5
-1205 46 -491 108 -871 213 -1297 367 -1503 1213 -2794 2684 -4100 424 -375
814 -690 1645 -1323 581 -443 851 -655 1000 -787 74 -65 196 -168 270 -228
341 -278 670 -624 854 -898 276 -412 344 -761 205 -1057 -189 -403 -778 -841
-1617 -1199 -297 -127 -1335 -492 -1852 -651 -673 -207 -1214 -327 -1740 -385
-197 -22 -686 -31 -876 -16 -331 27 -615 76 -759 132 l-100 39 -135 152 c-761
858 -1486 1705 -1604 1873 -23 33 -61 96 -84 139 -24 44 -96 154 -161 245
-330 462 -595 958 -858 1606 -554 1363 -877 2914 -953 4570 -12 259 -21 342
-51 457 -64 251 -194 473 -384 656 -194 188 -412 305 -676 364 -88 19 -132 23
-289 23 -264 0 -415 -36 -665 -158 -825 -403 -1461 -1293 -1758 -2462 -154
-602 -219 -1187 -219 -1945 0 -755 70 -1518 221 -2390 21 -124 38 -226 37
-227 -1 -1 -65 18 -141 43 -1368 442 -2395 678 -3080 709 -697 32 -1902 -244
-3318 -760 -71 -25 -130 -45 -132 -43 -1 2 15 102 36 223 173 978 254 1944
229 2739 -20 633 -79 1091 -205 1601 -206 833 -558 1500 -1057 1996 -335 334
-738 574 -1098 654 -114 25 -363 31 -485 12 -215 -34 -436 -124 -607 -247
-106 -76 -267 -239 -335 -340 -154 -229 -226 -449 -243 -745 -6 -93 -17 -287
-26 -430 -108 -1818 -573 -3659 -1275 -5046 -217 -429 -404 -719 -757 -1173
-528 -679 -607 -768 -1302 -1471 -190 -192 -364 -371 -386 -398 -45 -54 -49
-55 -279 -81 -476 -53 -1128 -57 -1675 -10 -815 69 -2224 392 -3078 703 -800
292 -1327 582 -1638 903 -110 113 -172 199 -224 311 -57 120 -74 200 -73 337
1 288 133 585 419 945 127 159 518 546 707 700 87 70 220 182 295 248 135 118
390 320 852 672 1363 1040 1862 1462 2480 2100 803 829 1368 1685 1723 2611
393 1024 560 2273 451 3369 -139 1408 -707 2735 -1629 3808 -431 502 -920 924
-1465 1264 -408 255 -1013 543 -1214 578 -97 16 -121 17 -211 4z m1035 -1898
c168 -129 327 -269 494 -431 501 -489 874 -1001 1176 -1615 456 -925 634
-1949 524 -3016 -26 -260 -32 -266 -26 -29 9 433 -36 823 -148 1265 -199 785
-589 1592 -1147 2375 -172 241 -465 608 -487 610 -5 0 -6 -19 -3 -42 4 -24 10
-236 13 -473 16 -1013 -57 -2041 -207 -2915 -39 -231 -73 -398 -64 -315 2 22
16 141 29 265 25 225 47 466 67 740 16 238 23 1047 10 1310 -38 770 -139 1430
-307 2005 -36 124 -99 311 -128 379 -9 21 -16 40 -16 43 0 6 120 -79 220 -156z
m29060 114 c-98 -228 -234 -796 -295 -1227 -14 -100 -28 -194 -30 -208 -2 -14
-6 -50 -10 -80 -3 -30 -8 -71 -10 -90 -2 -19 -9 -89 -15 -155 -6 -66 -13 -138
-15 -160 -34 -348 -47 -1261 -25 -1749 10 -224 45 -736 56 -836 14 -120 -6
-33 -40 175 -86 531 -137 1011 -178 1695 -9 142 -13 465 -13 948 l0 734 -38
-44 c-86 -97 -311 -382 -412 -523 -634 -876 -1060 -1796 -1235 -2665 -63 -318
-82 -485 -87 -811 -5 -259 -2 -344 22 -599 5 -44 4 -44 -5 -10 -23 82 -65 344
-75 471 -4 41 -9 90 -12 109 -3 19 -7 195 -9 390 -3 309 2 468 20 625 3 22 8
65 11 95 34 321 120 712 227 1040 339 1039 1015 2005 1893 2706 90 72 283 214
291 214 2 0 -5 -20 -16 -45z m-26903 -5482 c-3 -10 -5 -2 -5 17 0 19 2 27 5
18 2 -10 2 -26 0 -35z m24590 -195 c-3 -7 -5 -2 -5 12 0 14 2 19 5 13 2 -7 2
-19 0 -25z m-13659 -9940 l-3 -472 -2369 -2138 -2369 -2138 -571 0 -570 0 21
22 c49 48 5849 5196 5856 5197 4 1 6 -211 5 -471z m-17123 -440 c806 -612
2420 -1236 4685 -1811 526 -134 889 -202 1350 -253 229 -25 758 -31 950 -10
500 54 1135 210 1490 366 52 23 101 44 109 47 10 5 11 2 3 -13 -16 -32 -140
-408 -203 -619 -260 -867 -475 -2049 -553 -3040 -31 -391 -38 -651 -33 -1143
5 -496 16 -688 58 -1060 11 -101 19 -186 17 -188 -7 -6 -82 325 -133 578 -317
1600 -275 3381 109 4583 25 77 44 140 43 142 -1 1 -83 -16 -182 -38 -177 -40
-608 -120 -715 -134 -66 -9 -248 -91 -605 -274 -546 -280 -1039 -577 -1455
-876 -156 -111 -417 -316 -504 -395 -394 -353 -606 -596 -777 -893 -68 -118
-75 -105 -23 45 270 777 686 1517 1203 2143 50 61 91 113 91 116 0 3 -64 25
-142 49 -474 142 -1025 335 -1480 516 -1730 689 -3018 1563 -3656 2480 -12 17
40 -30 116 -105 75 -75 182 -171 237 -213z m27090 -418 c10 -11 16 -20 13 -20
-3 0 -13 9 -23 20 -10 11 -16 20 -13 20 3 0 13 -9 23 -20z m-3148 -4256 c-942
-891 -4131 -3893 -4133 -3891 -2 1 -10 314 -20 694 l-16 692 1306 1302 c718
716 1306 1309 1306 1318 0 9 -605 610 -1345 1336 l-1344 1320 -1 750 0 750
2130 -2130 c1656 -1655 2127 -2132 2117 -2141z m3354 4016 c73 -85 125 -149
115 -141 -19 16 -174 192 -251 286 -83 102 -5 18 136 -145z m12125 85 c140
-27 163 -38 225 -113 199 -238 270 -495 209 -751 -57 -238 -236 -428 -455
-486 -211 -55 -452 31 -595 211 -104 130 -147 248 -157 424 -10 186 38 352
155 531 58 89 67 98 120 122 161 71 335 93 498 62z m-41576 -120 c174 -46 323
-185 355 -330 l7 -30 -28 35 c-125 158 -292 240 -489 240 -164 0 -305 -53
-406 -153 -41 -40 -50 -46 -44 -26 32 107 148 210 288 255 86 28 231 32 317 9z
m37795 -31 c-70 -59 -268 -204 -395 -289 -534 -358 -1208 -694 -2010 -1000
-278 -106 -947 -331 -1237 -416 -101 -29 -183 -57 -183 -62 0 -4 44 -92 98
-195 380 -723 728 -1594 908 -2267 3 -11 -20 27 -51 85 -435 806 -1001 1429
-1703 1873 -307 194 -651 353 -955 442 -99 29 -135 35 -215 35 -205 0 -573 38
-777 80 -146 30 -135 42 -103 -117 15 -76 50 -273 78 -438 152 -905 220 -1858
192 -2697 -12 -344 -29 -624 -53 -858 -98 -966 -301 -1847 -619 -2683 -29 -76
-54 -136 -56 -134 -2 1 19 71 47 155 229 699 365 1466 410 2316 15 292 6 1118
-15 1406 -87 1160 -301 2339 -601 3310 -52 169 -196 588 -230 673 -6 14 13 8
83 -27 400 -201 940 -362 1442 -430 439 -59 466 -61 875 -61 338 0 414 5 777
51 519 65 1005 176 1918 438 882 253 1799 568 2295 790 55 24 102 45 105 45 3
0 -8 -11 -25 -25z m-8179 -126 l29 -33 -32 29 c-18 17 -33 31 -33 33 0 8 8 1
36 -29z m-7371 -2110 c894 -870 1624 -1585 1623 -1588 -2 -3 -750 -751 -1664
-1663 l-1661 -1658 -1644 1601 c-904 881 -1645 1605 -1647 1610 -4 10 2169
2131 2179 2128 4 -2 485 -468 1069 -1037 l1062 -1034 -74 -74 c-40 -42 -132
-130 -204 -197 -73 -66 -260 -246 -418 -399 l-285 -279 -25 19 c-13 11 -149
142 -302 292 l-279 273 255 249 255 250 -350 344 c-192 189 -353 344 -358 345
-8 0 -940 -906 -945 -919 -3 -8 1791 -1763 1808 -1769 10 -4 1870 1805 1870
1818 0 5 -503 498 -1117 1096 -615 598 -1205 1173 -1312 1278 l-193 191 358
352 c198 194 362 353 367 353 4 0 739 -712 1632 -1582z m-19600 -272 c182 -62
338 -193 414 -347 36 -75 72 -186 52 -163 -4 5 -29 37 -54 70 -101 134 -235
231 -392 283 -325 107 -666 35 -878 -188 -31 -33 -57 -54 -57 -47 0 8 16 45
35 84 79 157 226 268 426 322 62 17 98 20 224 17 132 -3 160 -7 230 -31z
m36138 -3 c116 -41 187 -84 267 -163 62 -61 140 -187 140 -226 0 -7 -26 15
-57 48 -163 171 -430 261 -686 231 -115 -14 -260 -61 -350 -114 -82 -49 -187
-146 -247 -228 -24 -33 -45 -59 -47 -57 -2 1 4 27 13 57 53 180 202 346 382
426 117 52 184 63 347 60 138 -3 157 -6 238 -34z m-9598 -976 l39 -2 -3684
-3627 c-2026 -1995 -3685 -3627 -3686 -3625 -3 3 352 1557 363 1584 4 12 1321
1295 2926 2850 l2918 2828 542 -3 c298 -1 560 -4 582 -5z m-19148 -3549 c-3
-8 -6 -5 -6 6 -1 11 2 17 5 13 3 -3 4 -12 1 -19z m-7577 -514 c0 -2 -9 0 -20
6 -11 6 -20 13 -20 16 0 2 9 0 20 -6 11 -6 20 -13 20 -16z m50 -30 c0 -2 -9 0
-20 6 -11 6 -20 13 -20 16 0 2 9 0 20 -6 11 -6 20 -13 20 -16z m50 -30 c0 -2
-9 0 -20 6 -11 6 -20 13 -20 16 0 2 9 0 20 -6 11 -6 20 -13 20 -16z m50 -30
c0 -2 -9 0 -20 6 -11 6 -20 13 -20 16 0 2 9 0 20 -6 11 -6 20 -13 20 -16z m50
-30 c0 -2 -9 0 -20 6 -11 6 -20 13 -20 16 0 2 9 0 20 -6 11 -6 20 -13 20 -16z
m50 -30 c0 -2 -9 0 -20 6 -11 6 -20 13 -20 16 0 2 9 0 20 -6 11 -6 20 -13 20
-16z m50 -30 c0 -2 -9 0 -20 6 -11 6 -20 13 -20 16 0 2 9 0 20 -6 11 -6 20
-13 20 -16z m50 -30 c0 -2 -9 0 -20 6 -11 6 -20 13 -20 16 0 2 9 0 20 -6 11
-6 20 -13 20 -16z m50 -30 c0 -2 -9 0 -20 6 -11 6 -20 13 -20 16 0 2 9 0 20
-6 11 -6 20 -13 20 -16z m50 -30 c0 -2 -9 0 -20 6 -11 6 -20 13 -20 16 0 2 9
0 20 -6 11 -6 20 -13 20 -16z m70 -40 c0 -2 -9 0 -20 6 -11 6 -20 13 -20 16 0
2 9 0 20 -6 11 -6 20 -13 20 -16z m50 -30 c0 -2 -9 0 -20 6 -11 6 -20 13 -20
16 0 2 9 0 20 -6 11 -6 20 -13 20 -16z m27671 -791 c-12 -20 -14 -14 -5 12 4
9 9 14 11 11 3 -2 0 -13 -6 -23z m4594 -900 c-36 -27 -697 -354 -708 -350 -6
2 153 87 353 189 331 168 413 205 355 161z m-10025 -4257 c0 -3 -149 -224
-332 -493 -182 -268 -332 -495 -332 -503 0 -8 755 -1277 1679 -2820 1754
-2931 2115 -3537 2115 -3549 0 -3 -345 -40 -766 -81 -689 -67 -767 -72 -778
-58 -6 8 -857 1537 -1891 3396 -1034 1860 -1886 3381 -1892 3382 -7 0 -13 4
-13 8 0 5 98 32 218 61 598 147 1284 370 1822 594 155 65 170 71 170 63z
m-8295 -414 c583 -190 1066 -350 1072 -357 10 -8 -176 -46 -724 -148 -405 -76
-740 -134 -744 -130 -6 7 -619 862 -688 962 l-24 33 24 -7 c13 -4 501 -163
1084 -353z m4044 -10746 c-5 -4 -109 -69 -129 -81 -32 -18 3 10 62 50 35 24
65 41 67 39 2 -2 2 -6 0 -8z"/>
</g>
</svg>
